<svg id="Layer_1" data-name="Layer 1" xmlns="http://www.w3.org/2000/svg" viewBox="0 0 752.3 553"><title>MRK-6951 LC- 3 images for article about the Internet Protocol (IP)</title><rect x="573.2" y="5" width="174.2" height="135" style="fill:#707070;stroke:#36393a;stroke-miterlimit:10;stroke-width:10px"/><rect x="573.2" y="204" width="174.2" height="135" style="fill:#707070;stroke:#36393a;stroke-miterlimit:10;stroke-width:10px"/><rect x="433.7" y="413" width="313.7" height="135" style="fill:#707070;stroke:#36393a;stroke-miterlimit:10;stroke-width:10px"/><path d="M247.3,77H230.5l-4.2,12.1h-5.6l15.6-42.3h5.2l15.6,42.3h-5.5Zm-15.2-4.5h13.7L239,53.2h-.2Z" style="fill:#36393a"/><path d="M289,73.9c0,9.5-5.2,15.7-12.9,15.7a10.7,10.7,0,0,1-9.7-5.4h-.1V99.3h-5.1V58.6H266v5.2h.1a11,11,0,0,1,9.9-5.7C283.7,58.1,289,64.3,289,73.9Zm-5.2,0c0-6.9-3.4-11.3-8.8-11.3s-8.8,4.5-8.8,11.3,3.5,11.2,8.8,11.2S283.8,80.8,283.8,73.9Z" style="fill:#36393a"/><path d="M322,73.9c0,9.5-5.3,15.7-13,15.7a10.9,10.9,0,0,1-9.7-5.4h-.1V99.3h-5.1V58.6H299v5.2h.1a10.9,10.9,0,0,1,9.8-5.7C316.7,58.1,322,64.3,322,73.9Zm-5.3,0c0-6.9-3.4-11.3-8.8-11.3s-8.7,4.5-8.7,11.3,3.5,11.2,8.7,11.2S316.7,80.8,316.7,73.9Z" style="fill:#36393a"/><path d="M327.3,46.8h5.1V89.1h-5.1Z" style="fill:#36393a"/><path d="M338.9,50a3.2,3.2,0,0,1,3.2-3.2,3.2,3.2,0,0,1,0,6.4A3.2,3.2,0,0,1,338.9,50Zm.7,8.6h5.1V89.1h-5.1Z" style="fill:#36393a"/><path d="M371.9,68.6c-.7-3.3-3.3-6-7.8-6s-8.8,4.4-8.8,11.3,3.6,11.2,8.9,11.2,6.9-2.1,7.7-5.8h5c-.7,6.1-5.8,10.3-12.8,10.3s-14-5.9-14-15.7,5.6-15.8,14-15.8,12.1,5,12.8,10.5Z" style="fill:#36393a"/><path d="M380.4,80.5c0-5.2,4-8.5,11-8.9l8.8-.5V68.5c0-3.7-2.5-5.9-6.7-5.9s-6.4,1.8-7,4.8h-5c.4-5.2,4.9-9.3,12.1-9.3S405.3,62,405.3,68V89.1h-4.9V83.9h-.1a11.2,11.2,0,0,1-9.8,5.7C384.5,89.6,380.4,86,380.4,80.5Zm19.8-3V75l-8.2.5c-4.1.3-6.4,2.1-6.4,5s2.4,4.8,6.1,4.8S400.2,81.9,400.2,77.5Z" style="fill:#36393a"/><path d="M418.5,51.3v7.3h5.9v4.2h-5.9V80.9c0,2.8,1.2,4.1,3.8,4.1l2.1-.2v4.3l-3.2.2c-5.6,0-7.8-2.2-7.8-8.1V62.8h-4.6V58.6h4.6V51.3Z" style="fill:#36393a"/><path d="M429.4,50a3.2,3.2,0,0,1,3.2-3.2,3.2,3.2,0,0,1,0,6.4A3.2,3.2,0,0,1,429.4,50Zm.7,8.6h5.1V89.1h-5.1Z" style="fill:#36393a"/><path d="M440.6,73.9c0-9.8,5.7-15.8,14.1-15.8s14.1,6,14.1,15.8-5.7,15.7-14.1,15.7S440.6,83.6,440.6,73.9Zm23,0c0-7.2-3.5-11.3-8.9-11.3s-8.9,4.1-8.9,11.3,3.5,11.2,8.9,11.2S463.6,81,463.6,73.9Z" style="fill:#36393a"/><path d="M473.9,58.6h4.8v4.9h.1c1.7-3.3,5-5.4,9.7-5.4,6.7,0,10.6,4.3,10.6,11.2V89.1H494V70.2c0-4.9-2.4-7.6-7-7.6s-8,3.4-8,8.6V89.1h-5.1Z" style="fill:#36393a"/><path d="M104.8,288.1V250.6H91.5v-4.8h31.9v4.8H110.1v37.5Z" style="fill:#36393a"/><path d="M121.4,257.6h4.8v5h.2a7.4,7.4,0,0,1,7.3-5.5l2.1.2v5a8.2,8.2,0,0,0-2.7-.3c-4,0-6.6,2.8-6.6,7.1v19h-5.1Z" style="fill:#36393a"/><path d="M138.1,279.5c0-5.2,4-8.5,11.1-8.9l8.7-.5v-2.6c0-3.7-2.5-5.9-6.7-5.9s-6.4,1.8-7,4.8h-5c.4-5.2,4.9-9.3,12.1-9.3S163,261,163,267v21.1h-4.9v-5.2H158a11.2,11.2,0,0,1-9.8,5.7C142.2,288.6,138.1,285,138.1,279.5Zm19.8-3V274l-8.2.5c-4.1.3-6.4,2.1-6.4,5s2.4,4.8,6.1,4.8S157.9,280.9,157.9,276.5Z" style="fill:#36393a"/><path d="M169.5,257.6h4.8v4.9h.1c1.7-3.3,4.9-5.4,9.6-5.4,6.7,0,10.6,4.3,10.6,11.2v19.8h-5.1V269.2c0-4.9-2.3-7.6-7-7.6s-7.9,3.4-7.9,8.6v17.9h-5.1Z" style="fill:#36393a"/><path d="M211.7,257.1c6.7,0,11.2,3.9,11.4,9.3h-4.9c-.4-3.2-2.7-5.1-6.5-5.1s-6.2,1.8-6.2,4.5,1.6,3.5,5,4.3l4.8,1.2c6.2,1.5,8.4,3.9,8.4,8.3s-5,9-11.8,9-11.6-3.6-12.2-9.3h5.1c.6,3.5,3,5.2,7.1,5.2s6.7-1.8,6.7-4.5-1.2-3.5-4.7-4.3l-4.8-1.2c-5.8-1.4-8.6-4.1-8.6-8.5S205.1,257.1,211.7,257.1Z" style="fill:#36393a"/><path d="M256.8,272.9c0,9.5-5.2,15.7-12.9,15.7a10.7,10.7,0,0,1-9.7-5.4h-.1v15.1H229V257.6h4.8v5.2h.1a11.2,11.2,0,0,1,9.9-5.7C251.5,257.1,256.8,263.3,256.8,272.9Zm-5.2,0c0-6.9-3.4-11.3-8.8-11.3s-8.7,4.5-8.7,11.3,3.5,11.2,8.7,11.2S251.6,279.8,251.6,272.9Z" style="fill:#36393a"/><path d="M260.4,272.9c0-9.8,5.7-15.8,14.2-15.8s14.1,6,14.1,15.8-5.7,15.7-14.1,15.7S260.4,282.6,260.4,272.9Zm23.1,0c0-7.2-3.5-11.3-8.9-11.3s-9,4.1-9,11.3,3.6,11.2,9,11.2S283.5,280,283.5,272.9Z" style="fill:#36393a"/><path d="M293.8,257.6h4.8v5h.1a7.4,7.4,0,0,1,7.4-5.5l2,.2v5a7.8,7.8,0,0,0-2.7-.3c-3.9,0-6.5,2.8-6.5,7.1v19h-5.1Z" style="fill:#36393a"/><path d="M319,250.3v7.3h5.9v4.2H319v18.1c0,2.8,1.2,4.1,3.8,4.1l2.1-.2v4.3l-3.2.2c-5.6,0-7.8-2.2-7.8-8.1V261.8h-4.5v-4.2h4.5v-7.3Z" style="fill:#36393a"/><path d="M4.1,497.1V454.8H9.4v42.3Z" style="fill:#36393a"/><path d="M16.8,466.6h4.8v4.9h.1c1.7-3.3,5-5.4,9.7-5.4,6.7,0,10.5,4.3,10.5,11.2v19.8H36.8V478.2c0-4.9-2.3-7.6-7-7.6s-7.9,3.4-7.9,8.6v17.9H16.8Z" style="fill:#36393a"/><path d="M55.1,459.3v7.3h6v4.2h-6v18.1c0,2.8,1.2,4.1,3.8,4.1l2.1-.2v4.3l-3.2.2c-5.6,0-7.8-2.2-7.8-8.1V470.8H45.5v-4.2H50v-7.3Z" style="fill:#36393a"/><path d="M90.8,488.4c-.9,5.3-6,9.2-12.7,9.2-8.7,0-14-6-14-15.6s5.4-15.9,13.8-15.9,13.3,6,13.3,15.2v1.9H69.3v.3c0,5.9,3.5,9.7,9,9.7,3.8,0,6.7-2,7.5-4.8Zm-21.4-9.1H85.9c-.1-5.1-3.3-8.8-8.1-8.8S69.7,474.2,69.4,479.3Z" style="fill:#36393a"/><path d="M96.3,466.6h4.8v5h.1a7.5,7.5,0,0,1,7.4-5.5l2.1.2v5a8.2,8.2,0,0,0-2.7-.3c-4,0-6.6,2.8-6.6,7.1v19H96.3Z" style="fill:#36393a"/><path d="M114.8,466.6h4.8v4.9h.1c1.7-3.3,5-5.4,9.7-5.4,6.7,0,10.6,4.3,10.6,11.2v19.8h-5.1V478.2c0-4.9-2.4-7.6-7-7.6s-8,3.4-8,8.6v17.9h-5.1Z" style="fill:#36393a"/><path d="M171.7,488.4c-.9,5.3-6.1,9.2-12.7,9.2-8.8,0-14.1-6-14.1-15.6s5.4-15.9,13.8-15.9,13.3,6,13.3,15.2v1.9H150.2v.3c0,5.9,3.4,9.7,8.9,9.7,3.8,0,6.7-2,7.5-4.8Zm-21.5-9.1h16.6c-.2-5.1-3.4-8.8-8.2-8.8S150.5,474.2,150.2,479.3Z" style="fill:#36393a"/><path d="M183.9,459.3v7.3h5.9v4.2h-5.9v18.1c0,2.8,1.2,4.1,3.8,4.1l2.1-.2v4.3l-3.2.2c-5.6,0-7.8-2.2-7.8-8.1V470.8h-4.5v-4.2h4.5v-7.3Z" style="fill:#36393a"/><path d="M633.1,58.8c6.7,0,10.7,4.2,10.7,11.3s-4,11.3-10.7,11.3h-7.6V58.8Zm-4.8,20h4.6c5.1,0,8-3.1,8-8.7s-2.9-8.8-8-8.8h-4.6Z" style="fill:#fff"/><path d="M646.2,76.8c0-2.8,2.1-4.6,5.9-4.8l4.6-.3V70.4c0-2-1.3-3.2-3.5-3.2s-3.4,1-3.8,2.6h-2.6c.2-2.8,2.6-5,6.4-5s6.2,2.1,6.2,5.3V81.4h-2.5V78.6h-.1a6,6,0,0,1-5.2,3C648.3,81.6,646.2,79.7,646.2,76.8Zm10.5-1.6V73.9l-4.3.2c-2.2.2-3.5,1.1-3.5,2.7s1.3,2.5,3.3,2.5A4.2,4.2,0,0,0,656.7,75.2Z" style="fill:#fff"/><path d="M666.5,61.2v3.9h3.1v2.2h-3.1V77c0,1.5.6,2.2,2,2.2h1.1v2.3h-1.7c-3,0-4.1-1.2-4.1-4.4V67.3h-2.5V65.1h2.5V61.2Z" style="fill:#fff"/><path d="M671.6,76.8c0-2.8,2.1-4.6,5.9-4.8l4.6-.3V70.4c0-2-1.3-3.2-3.6-3.2s-3.4,1-3.7,2.6h-2.6c.2-2.8,2.6-5,6.4-5s6.2,2.1,6.2,5.3V81.4h-2.6V78.6h0a6,6,0,0,1-5.2,3C673.7,81.6,671.6,79.7,671.6,76.8Zm10.5-1.6V73.9l-4.3.2c-2.2.2-3.5,1.1-3.5,2.7s1.3,2.5,3.3,2.5A4.3,4.3,0,0,0,682.1,75.2Z" style="fill:#fff"/><path d="M603.8,261.2V241.1h-7.1v-2.5h17v2.5h-7.1v20.1Z" style="fill:#fff"/><path d="M614.4,249.9c0-7.1,4-11.7,10.2-11.7s8.6,3,9.3,7.5h-2.8a6.5,6.5,0,0,0-6.5-4.9c-4.5,0-7.3,3.6-7.3,9.1s2.8,9,7.3,9,5.7-1.6,6.5-4.3h2.8c-1,4.4-4.4,6.9-9.3,6.9S614.4,257,614.4,249.9Z" style="fill:#fff"/><path d="M645.3,238.6a7.3,7.3,0,1,1-.1,14.5H640v8.1h-2.8V238.6Zm-5.3,12h4.5c3.3,0,5.1-1.8,5.1-4.8s-1.8-4.7-5.1-4.7H640Z" style="fill:#fff"/><path d="M651.8,266l8-27.4h2.3l-8,27.4Z" style="fill:#fff"/><path d="M667.1,253.1c0,3.4,2.3,5.8,6.2,5.8s6.1-2.4,6.1-5.8V238.6h2.8v14.6c0,4.9-3.3,8.3-8.9,8.3s-9-3.4-9-8.3V238.6h2.8Z" style="fill:#fff"/><path d="M694.2,238.6c6.7,0,10.6,4.2,10.6,11.3s-3.9,11.3-10.6,11.3h-7.6V238.6Zm-4.8,20H694c5.1,0,7.9-3.1,7.9-8.7s-2.8-8.8-7.9-8.8h-4.6Z" style="fill:#fff"/><path d="M716.4,238.6a7.3,7.3,0,1,1-.1,14.5h-5.2v8.1h-2.8V238.6Zm-5.3,12h4.5c3.2,0,5.1-1.8,5.1-4.8s-1.8-4.7-5.1-4.7h-4.5Z" style="fill:#fff"/><path d="M633.1,277c6.7,0,10.7,4.2,10.7,11.3s-4,11.3-10.7,11.3h-7.6V277Zm-4.8,20h4.6c5.1,0,8-3.1,8-8.7s-2.9-8.8-8-8.8h-4.6Z" style="fill:#fff"/><path d="M659,293.1h-9l-2.2,6.5h-3l8.3-22.6h2.8l8.3,22.6h-2.9Zm-8.1-2.4h7.3l-3.6-10.3h-.1Z" style="fill:#fff"/><path d="M669.4,299.6V279.5h-7.1V277h17v2.5h-7.1v20.1Z" style="fill:#fff"/><path d="M691.5,293.1h-8.9l-2.3,6.5h-2.9l8.3-22.6h2.8l8.3,22.6h-3Zm-8.1-2.4h7.3l-3.6-10.3H687Z" style="fill:#fff"/><path d="M429.8,261.2V241.1h-7.1v-2.5h17v2.5h-7.1v20.1Z" style="fill:#36393a"/><path d="M440.4,249.9c0-7.1,4-11.7,10.2-11.7s8.6,3,9.3,7.5h-2.8a6.5,6.5,0,0,0-6.5-4.9c-4.5,0-7.3,3.6-7.3,9.1s2.8,9,7.3,9,5.7-1.6,6.5-4.3h2.8c-1,4.4-4.4,6.9-9.3,6.9S440.4,257,440.4,249.9Z" style="fill:#36393a"/><path d="M471.3,238.6a7.3,7.3,0,0,1-.1,14.5H466v8.1h-2.8V238.6Zm-5.3,12h4.5c3.3,0,5.1-1.8,5.1-4.8s-1.8-4.7-5.1-4.7H466Z" style="fill:#36393a"/><path d="M477.8,266l8-27.4h2.3l-8,27.4Z" style="fill:#36393a"/><path d="M493.1,253.1c0,3.4,2.3,5.8,6.2,5.8s6.1-2.4,6.1-5.8V238.6h2.8v14.6c0,4.9-3.3,8.3-8.9,8.3s-9-3.4-9-8.3V238.6h2.8Z" style="fill:#36393a"/><path d="M520.2,238.6c6.7,0,10.6,4.2,10.6,11.3s-3.9,11.3-10.6,11.3h-7.6V238.6Zm-4.8,20H520c5.1,0,7.9-3.1,7.9-8.7s-2.8-8.8-7.9-8.8h-4.6Z" style="fill:#36393a"/><path d="M542.4,238.6a7.3,7.3,0,1,1-.1,14.5h-5.2v8.1h-2.8V238.6Zm-5.3,12h4.5c3.2,0,5.1-1.8,5.1-4.8s-1.8-4.7-5.1-4.7h-4.5Z" style="fill:#36393a"/><path d="M454.2,299.6V289.3H441.9v10.3H439V277h2.9v9.8h12.3V277H457v22.6Z" style="fill:#36393a"/><path d="M474.4,294.9c-.4,2.8-3.2,4.9-6.7,4.9s-7.5-3.2-7.5-8.3,2.9-8.5,7.4-8.5,7,3.2,7,8.1v1.1H463c0,3.1,1.8,5.2,4.7,5.2a4.1,4.1,0,0,0,4.1-2.6ZM463,290h8.8c0-2.7-1.7-4.6-4.3-4.6S463.2,287.3,463,290Z" style="fill:#36393a"/><path d="M476.7,295c0-2.8,2.2-4.6,5.9-4.8l4.7-.3v-1.3c0-2-1.3-3.2-3.6-3.2s-3.4,1-3.7,2.6h-2.7c.2-2.8,2.6-5,6.5-5s6.2,2.1,6.2,5.3v11.3h-2.6v-2.8h0a6.1,6.1,0,0,1-5.3,3C478.9,299.8,476.7,297.9,476.7,295Zm10.6-1.6v-1.3l-4.4.2c-2.2.2-3.4,1.1-3.4,2.7s1.3,2.5,3.2,2.5A4.3,4.3,0,0,0,487.3,293.4Z" style="fill:#36393a"/><path d="M492.6,291.4c0-5.1,2.8-8.4,6.9-8.4a5.8,5.8,0,0,1,5.2,2.9h.1V277h2.7v22.6h-2.6v-2.8h0a5.9,5.9,0,0,1-5.3,3C495.5,299.8,492.6,296.5,492.6,291.4Zm2.8,0c0,3.7,1.8,6,4.7,6s4.7-2.3,4.7-6-1.9-6-4.7-6S495.4,287.8,495.4,291.4Z" style="fill:#36393a"/><path d="M524.6,294.9c-.5,2.8-3.2,4.9-6.7,4.9s-7.5-3.2-7.5-8.3,2.8-8.5,7.3-8.5,7.1,3.2,7.1,8.1v1.1H513.2c0,3.1,1.8,5.2,4.7,5.2a3.9,3.9,0,0,0,4-2.6ZM513.2,290H522c-.1-2.7-1.8-4.6-4.3-4.6S513.4,287.3,513.2,290Z" style="fill:#36393a"/><path d="M527.6,283.3h2.5V286h.1a4,4,0,0,1,3.9-3h1.1v2.7l-1.4-.2c-2.2,0-3.5,1.5-3.5,3.8v10.2h-2.7Z" style="fill:#36393a"/><path d="M331.8,470.2V447.6h2.8v22.6Z" style="fill:#36393a"/><path d="M347,447.6a7.3,7.3,0,0,1,0,14.5h-5.2v8.1h-2.9V447.6Zm-5.2,12h4.5c3.2,0,5-1.8,5-4.8s-1.8-4.7-5-4.7h-4.5Z" style="fill:#36393a"/><path d="M310.4,508.6V498.3H298v10.3h-2.8V486H298v9.8h12.4V486h2.8v22.6Z" style="fill:#36393a"/><path d="M330.6,503.9c-.5,2.8-3.2,4.9-6.8,4.9s-7.5-3.2-7.5-8.3,2.9-8.5,7.4-8.5,7.1,3.2,7.1,8.1v1.1H319.1c0,3.1,1.9,5.2,4.8,5.2a3.9,3.9,0,0,0,4-2.6ZM319.2,499H328c-.1-2.7-1.8-4.6-4.3-4.6A4.4,4.4,0,0,0,319.2,499Z" style="fill:#36393a"/><path d="M332.9,504c0-2.8,2.1-4.6,5.9-4.8l4.6-.3v-1.3c0-2-1.3-3.2-3.5-3.2s-3.4,1-3.8,2.6h-2.6c.2-2.8,2.6-5,6.4-5s6.2,2.1,6.2,5.3v11.3h-2.5v-2.8h-.1a6,6,0,0,1-5.2,3C335.1,508.8,332.9,506.9,332.9,504Zm10.5-1.6v-1.3l-4.3.2c-2.2.2-3.5,1.1-3.5,2.7s1.3,2.5,3.3,2.5A4.2,4.2,0,0,0,343.4,502.4Z" style="fill:#36393a"/><path d="M348.8,500.4c0-5.1,2.8-8.4,6.9-8.4a6,6,0,0,1,5.2,2.9h0V486h2.7v22.6h-2.5v-2.8H361a5.7,5.7,0,0,1-5.2,3C351.6,508.8,348.8,505.5,348.8,500.4Zm2.8,0c0,3.7,1.8,6,4.7,6s4.6-2.3,4.6-6-1.8-6-4.6-6S351.6,496.8,351.6,500.4Z" style="fill:#36393a"/><path d="M380.8,503.9c-.5,2.8-3.2,4.9-6.8,4.9s-7.5-3.2-7.5-8.3,2.9-8.5,7.4-8.5,7.1,3.2,7.1,8.1v1.1H369.3c0,3.1,1.8,5.2,4.8,5.2a4,4,0,0,0,4-2.6ZM369.3,499h8.9c-.1-2.7-1.8-4.6-4.4-4.6S369.5,496.3,369.3,499Z" style="fill:#36393a"/><path d="M383.7,492.3h2.6V495h0a4.2,4.2,0,0,1,4-3h1.1v2.7l-1.5-.2c-2.1,0-3.5,1.5-3.5,3.8v10.2h-2.7Z" style="fill:#36393a"/><path d="M545,489.4V466.8h2.8v22.6Z" style="fill:#fff"/><path d="M560.2,466.8a6.9,6.9,0,0,1,7.2,7.2,7,7,0,0,1-7.2,7.3H555v8.1h-2.8V466.8Zm-5.2,12h4.5c3.2,0,5-1.8,5-4.8s-1.8-4.7-5-4.7H555Z" style="fill:#fff"/><path d="M584.8,466.8c6.7,0,10.6,4.2,10.6,11.3s-3.9,11.3-10.6,11.3h-7.6V466.8Zm-4.8,20h4.6c5.1,0,8-3.1,8-8.7s-2.9-8.8-8-8.8H580Z" style="fill:#fff"/><path d="M597.9,484.8c0-2.8,2.1-4.6,5.9-4.8l4.6-.3v-1.3c0-2-1.3-3.2-3.6-3.2s-3.4,1-3.7,2.6h-2.6c.2-2.8,2.6-5,6.4-5s6.2,2.1,6.2,5.3v11.3h-2.6v-2.8h0a6,6,0,0,1-5.2,3C600,489.6,597.9,487.7,597.9,484.8Zm10.5-1.6v-1.3l-4.3.2c-2.2.2-3.5,1.1-3.5,2.7s1.3,2.5,3.3,2.5A4.3,4.3,0,0,0,608.4,483.2Z" style="fill:#fff"/><path d="M618.2,469.2v3.9h3.1v2.2h-3.1V485c0,1.5.6,2.2,2,2.2h1.1v2.3h-1.7c-3,0-4.1-1.2-4.1-4.4v-9.8H613v-2.2h2.5v-3.9Z" style="fill:#fff"/><path d="M623.2,484.8c0-2.8,2.2-4.6,5.9-4.8l4.7-.3v-1.3c0-2-1.3-3.2-3.6-3.2s-3.4,1-3.7,2.6h-2.6c.1-2.8,2.6-5,6.4-5s6.2,2.1,6.2,5.3v11.3h-2.6v-2.8h0a6.1,6.1,0,0,1-5.2,3C625.4,489.6,623.2,487.7,623.2,484.8Zm10.6-1.6v-1.3l-4.3.2c-2.2.2-3.5,1.1-3.5,2.7s1.3,2.5,3.3,2.5A4.3,4.3,0,0,0,633.8,483.2Z" style="fill:#fff"/><rect x="399.2" y="204" width="174.2" height="135" style="fill:none;stroke:#36393a;stroke-miterlimit:10;stroke-width:10px"/><rect x="265.2" y="413" width="166.5" height="135" style="fill:none;stroke:#36393a;stroke-miterlimit:10;stroke-width:10px"/></svg>